<svg width="18" height="19" viewBox="0 0 18 19" fill="none" xmlns="http://www.w3.org/2000/svg">
<path d="M5.40244 14.9C4.90744 14.9 4.48369 14.7237 4.13119 14.3712C3.77869 14.0187 3.60244 13.595 3.60244 13.1V11.3H5.40244V13.1H16.2024V4.1H5.40244V5.9H3.60244V2.3C3.60244 1.805 3.77869 1.38125 4.13119 1.02875C4.48369 0.67625 4.90744 0.5 5.40244 0.5H16.2024C16.6974 0.5 17.1212 0.67625 17.4737 1.02875C17.8262 1.38125 18.0024 1.805 18.0024 2.3V13.1C18.0024 13.595 17.8262 14.0187 17.4737 14.3712C17.1212 14.7237 16.6974 14.9 16.2024 14.9H5.40244ZM1.80244 18.5C1.30744 18.5 0.883691 18.3237 0.531191 17.9712C0.178691 17.6187 0.00244141 17.195 0.00244141 16.7V4.1H1.80244V16.7H14.4024V18.5H1.80244ZM9.90244 12.2L8.64244 10.94L10.0599 9.5H3.60244V7.7H10.0599L8.64244 6.26L9.90244 5L13.5024 8.6L9.90244 12.2Z" fill="#808080"/>
</svg>
